# xmcd CD database file
#
# Track frame offsets:
#	150
#	22045
#	41420
#	55981
#
# Disc length: 1054 seconds
#
# Revision: 0
# Processed by: cddbd v1.5PL3 Copyright (c) Steve Scherf et al.
# Submitted via: CDex 1.50beta10
#
DISCID=2d041c04
DTITLE=g-virus - S･A vol.0.1 KA-SHIN-HOU-ZOU
DYEAR=2004
DGENRE=Game
TTITLE0=Invader
TTITLE1=タップマンのテーマ -ロックマン３ Dr.ワイリーの野望!?より-
TTITLE2=大江戸戦士トノサマン -逆転裁判より-
TTITLE3=追求メドレー -逆転裁判より-
EXTD=YEAR: 2004
EXTT0=
EXTT1=
EXTT2=
EXTT3=
PLAYORDER=
